<svg width="800" height="480" viewBox="0 0 800 480" fill="none" xmlns="http://www.w3.org/2000/svg">
  <defs>
    <linearGradient id="bg" x1="0" y1="0" x2="800" y2="480" gradientUnits="userSpaceOnUse">
      <stop stop-color="#080C14"/>
      <stop offset="1" stop-color="#10192A"/>
    </linearGradient>
  </defs>

  <rect width="800" height="480" rx="16" fill="url(#bg)"/>

  <!-- FiveM Architecture Header -->
  <rect x="40" y="30" width="720" height="48" rx="8" fill="#121B2B" stroke="#1E2E48"/>
  <rect x="56" y="44" width="20" height="20" rx="4" fill="#F59E0B"/>
  <text x="86" y="58" fill="#F8FAFC" font-family="sans-serif" font-size="14" font-weight="bold">QB-CORE ENTERPRISE FIVEM ECOSYSTEM</text>
  <text x="420" y="58" fill="#64748B" font-family="sans-serif" font-size="12">| Windows Server VPS &amp; Anti-DDoS</text>
  <rect x="620" y="42" width="124" height="24" rx="12" fill="#10B981" fill-opacity="0.2" stroke="#10B981" stroke-width="0.5"/>
  <circle cx="634" cy="54" r="4" fill="#10B981"/>
  <text x="646" y="58" fill="#34D399" font-family="monospace" font-size="11" font-weight="bold">RESMON: 0.04ms</text>

  <!-- Left Column: Server Infrastructure & Anti-DDoS -->
  <rect x="40" y="96" width="240" height="344" rx="10" fill="#0D1422" stroke="#1E2E48"/>
  <text x="56" y="126" fill="#F59E0B" font-family="sans-serif" font-size="12" font-weight="bold">SERVER INFRASTRUCTURE</text>

  <rect x="56" y="142" width="208" height="84" rx="6" fill="#131F33"/>
  <text x="68" y="166" fill="#F8FAFC" font-family="sans-serif" font-size="12" font-weight="600">Anti-DDoS Firewall Layer</text>
  <text x="68" y="184" fill="#94A3B8" font-family="sans-serif" font-size="10">UDP Packet Filtering on 30120</text>
  <text x="68" y="202" fill="#10B981" font-family="monospace" font-size="10">Blocked: 4.8M SYN/UDP Flood</text>

  <rect x="56" y="236" width="208" height="84" rx="6" fill="#131F33"/>
  <text x="68" y="260" fill="#F8FAFC" font-family="sans-serif" font-size="12" font-weight="600">MySQL Connection Pool</text>
  <text x="68" y="278" fill="#94A3B8" font-family="sans-serif" font-size="10">OxMySQL Async Queries</text>
  <text x="68" y="296" fill="#38BDF8" font-family="monospace" font-size="10">Pool: 32 Active Connections</text>

  <rect x="56" y="330" width="208" height="94" rx="6" fill="#131F33"/>
  <text x="68" y="354" fill="#F8FAFC" font-family="sans-serif" font-size="12" font-weight="600">Lua Script Optimization</text>
  <text x="68" y="372" fill="#94A3B8" font-family="sans-serif" font-size="10">Zero Thread Starvation</text>
  <text x="68" y="390" fill="#F59E0B" font-family="monospace" font-size="10">Tick: 64Hz Stable Rate</text>

  <!-- Right: Gameplay Mechanics & Telemetry HUD -->
  <rect x="300" y="96" width="460" height="210" rx="10" fill="#0D1422" stroke="#1E2E48"/>
  <text x="320" y="126" fill="#F8FAFC" font-family="sans-serif" font-size="14" font-weight="bold">High-Throughput Roleplay Engine</text>
  <text x="320" y="146" fill="#64748B" font-family="sans-serif" font-size="11">Custom economy balance, modular inventory, and interactive NUI HUDs</text>

  <!-- Metrics -->
  <rect x="320" y="164" width="130" height="64" rx="6" fill="#142036"/>
  <text x="332" y="184" fill="#64748B" font-family="sans-serif" font-size="10">PLAYER CAPACITY</text>
  <text x="332" y="214" fill="#38BDF8" font-family="sans-serif" font-size="22" font-weight="bold">128 Slots</text>

  <rect x="460" y="164" width="130" height="64" rx="6" fill="#142036"/>
  <text x="472" y="184" fill="#64748B" font-family="sans-serif" font-size="10">AVERAGE RESMON</text>
  <text x="472" y="214" fill="#10B981" font-family="sans-serif" font-size="22" font-weight="bold">0.04 ms</text>

  <rect x="600" y="164" width="140" height="64" rx="6" fill="#142036"/>
  <text x="612" y="184" fill="#64748B" font-family="sans-serif" font-size="10">SERVER UPTIME</text>
  <text x="612" y="214" fill="#F59E0B" font-family="sans-serif" font-size="22" font-weight="bold">99.8%</text>

  <rect x="320" y="242" width="420" height="48" rx="6" fill="#090F1B"/>
  <text x="334" y="270" fill="#F59E0B" font-family="monospace" font-size="11">QB-Core Framework · QBOX Ready · Custom Lua Modules · NUI Reactive Menus</text>

  <!-- Bottom: Console Log -->
  <rect x="300" y="320" width="460" height="120" rx="10" fill="#0D1422" stroke="#1E2E48"/>
  <text x="320" y="344" fill="#38BDF8" font-family="monospace" font-size="11" font-weight="bold">FIVE ENGINE LIVE TELEMETRY</text>
  <rect x="320" y="356" width="420" height="32" rx="4" fill="#131F33"/>
  <text x="334" y="376" fill="#34D399" font-family="monospace" font-size="10">[QB-Core] Loaded 84 custom resources in 1.4s · Database pools verified</text>
  <rect x="320" y="394" width="420" height="32" rx="4" fill="#131F33"/>
  <text x="334" y="414" fill="#38BDF8" font-family="monospace" font-size="10">[Heartbeat] Windows Server VPS 2025: CPU 12% | RAM 4.2GB/32GB | Tick: 64Hz</text>
</svg>
